<svg xmlns="http://www.w3.org/2000/svg" width="360" height="189" viewBox="0 0 360 189" role="img" aria-labelledby="title desc">
  <title id="title">VDM Insumos</title>
  <desc id="desc">Logo de VDM Insumos en color violeta.</desc>
  <rect width="360" height="189" fill="none"/>
  <g transform="translate(40 18)">
    <path fill="#5F18F3" d="M0 0h32l26 58L84 0h31L71 86H45L0 0Zm118 0h60c32 0 58 17 58 43s-26 43-58 43h-60V0Zm31 24v38h29c15 0 27-7 27-19s-12-19-27-19h-29ZM246 0h29l28 39L331 0h29v86h-30V43l-22 31h-10l-22-31v43h-30V0Z"/>
    <text x="139" y="127" text-anchor="middle" font-family="Arial, Helvetica, sans-serif" font-size="32" font-weight="800" fill="#56565D">INSUMOS</text>
  </g>
</svg>
