<svg xmlns="http://www.w3.org/2000/svg" viewBox="0 0 900 620" role="img" aria-labelledby="title desc">
  <title id="title">Temporizador industrial</title>
  <desc id="desc">Ilustracion tecnica de modulo temporizador digital para tablero industrial.</desc>
  <defs>
    <linearGradient id="case" x1="0" x2="1" y1="0" y2="1">
      <stop offset="0" stop-color="#ffffff"/>
      <stop offset=".55" stop-color="#d9dde7"/>
      <stop offset="1" stop-color="#8f98a9"/>
    </linearGradient>
    <linearGradient id="violet" x1="0" x2="1">
      <stop offset="0" stop-color="#6621ff"/>
      <stop offset="1" stop-color="#5014d8"/>
    </linearGradient>
    <filter id="shadow" x="-20%" y="-20%" width="140%" height="140%">
      <feDropShadow dx="0" dy="18" stdDeviation="18" flood-color="#111827" flood-opacity=".18"/>
    </filter>
  </defs>
  <rect width="900" height="620" rx="34" fill="#ffffff"/>
  <rect x="52" y="55" width="796" height="510" rx="28" fill="#f6f7fb"/>
  <g filter="url(#shadow)">
    <rect x="284" y="74" width="332" height="462" rx="30" fill="url(#case)" stroke="#667085" stroke-width="8"/>
    <rect x="323" y="118" width="254" height="98" rx="16" fill="#111827"/>
    <text x="450" y="183" text-anchor="middle" font-family="Arial, Helvetica, sans-serif" font-size="52" font-weight="700" fill="#61ff9b">08:45</text>
    <rect x="330" y="250" width="240" height="42" rx="18" fill="url(#violet)"/>
    <text x="450" y="278" text-anchor="middle" font-family="Arial, Helvetica, sans-serif" font-size="20" font-weight="700" fill="#fff">TIMER CONTROL</text>
    <circle cx="372" cy="346" r="31" fill="#eef0f5" stroke="#747d8c" stroke-width="6"/>
    <circle cx="450" cy="346" r="31" fill="#eef0f5" stroke="#747d8c" stroke-width="6"/>
    <circle cx="528" cy="346" r="31" fill="#eef0f5" stroke="#747d8c" stroke-width="6"/>
    <path d="M365 346h14M443 346h14M521 346h14" stroke="#566070" stroke-width="8" stroke-linecap="round"/>
    <rect x="333" y="422" width="234" height="58" rx="14" fill="#fff" stroke="#aab1bd" stroke-width="5"/>
    <path d="M362 480v48M414 480v48M466 480v48M518 480v48" stroke="#5f6876" stroke-width="10" stroke-linecap="round"/>
    <path d="M324 88h252" stroke="#ffffff" stroke-width="10" stroke-linecap="round" opacity=".65"/>
    <path d="M603 158h44c20 0 36 16 36 36v222c0 20-16 36-36 36h-44" fill="none" stroke="#a6adba" stroke-width="20" stroke-linecap="round" opacity=".55"/>
  </g>
  <text x="450" y="576" text-anchor="middle" font-family="Arial, Helvetica, sans-serif" font-size="28" font-weight="700" fill="#1f2937">Temporizador industrial</text>
</svg>
